<mxfile host="app.diagrams.net" modified="2022-04-29T02:23:43.510Z" agent="5.0 (Windows NT 10.0; WOW64) AppleWebKit/537.36 (KHTML, like Gecko) Chrome/100.0.4896.134 Safari/537.36" etag="Urvl08x5jSKB2SkKMdKi" version="17.5.0" type="github">
  <diagram id="Tg4x1ccLZqbXOGRaMJHR" name="Page-1">
    <mxGraphModel dx="1088" dy="594" grid="0" gridSize="10" guides="1" tooltips="1" connect="1" arrows="1" fold="1" page="1" pageScale="1" pageWidth="4681" pageHeight="3300" math="0" shadow="0">
      <root>
        <mxCell id="0" />
        <mxCell id="1" parent="0" />
      </root>
    </mxGraphModel>
  </diagram>
</mxfile>
